:version 1.10
:name ASF
:units
  mass 1
  length 1
  angle deg
:documentation
  ASF file generated by Kaydara
:root
  axis xyz
  order  tx ty tz rx ry rz
  position 0 0 0
  orientation 0 0 0
:bonedata
  begin
    id 1
    name RightUpLegDummy
    direction -0.718183 -0.695806 0.00816078
    length 4.904
    axis 0 0 0 xyz
  end
  begin
    id 2
    name RightUpLeg
    direction 3.53373e-006 -0.995788 0.0916898
    length 17.4976
    axis -3.49089 -0.000906625 0.000286804 xyz
    dof rx ry rz
  end
  begin
    id 3
    name RightLeg
    direction 0.00371092 -0.995096 -0.0988419
    length 16.5821
    axis 3.68512 0.0193738 -0.131023 xyz
    dof rx ry rz
  end
  begin
    id 4
    name RightFoot
    direction 0.00079151 -0.46099 0.887405
    length 3.77069
    axis 4.81691e-005 -0.120479 -0.188788 xyz
    dof rx ry rz
  end
  begin
    id 5
    name RightToes
    direction 0 0 0
    length 0
    axis 0 0 0 xyz
    dof rx ry rz
  end
  begin
    id 6
    name SpineDummy
    direction 8.3039e-015 1 4.57515e-016
    length 4.6813
    axis 0 0 0 xyz
  end
  begin
    id 7
    name Spine
    direction -3.15643e-008 0.999988 0.00495137
    length 10.1015
    axis -0.001389 0.000121418 2.40972e-006 xyz
    dof rx ry rz
  end
  begin
    id 8
    name Spine1
    direction 0 0 0
    length 0
    axis -0.001389 0.000121451 1.30017e-006 xyz
    dof rx ry rz
  end
  begin
    id 9
    name HEadDummy
    direction -1.99912e-008 0.999999 0.00127422
    length 3.43865
    axis -0.001389 0.000121451 1.30017e-006 xyz
  end
  begin
    id 10
    name HEad
    direction 0 0 0
    length 0
    axis 0 0 0 xyz
    dof rx ry rz
  end
  begin
    id 11
    name LeftShoulder1Dummy
    direction 0.998891 -0.0402509 -0.0244456
    length 3.5433
    axis -0.001389 0.000121451 1.30017e-006 xyz
  end
  begin
    id 12
    name LeftShoulder1
    direction 0.99951 -0.000327763 0.0313091
    length 4.05031
    axis -0.001389 0.000121451 1.30017e-006 xyz
    dof rx ry rz
  end
  begin
    id 13
    name LeftArm
    direction 0.998561 -0.00100056 -0.0536182
    length 10.3537
    axis -23.1894 0.134784 0.967509 xyz
    dof rx ry rz
  end
  begin
    id 14
    name LeftForeArm
    direction 0.998903 0.00866432 0.046012
    length 8.70632
    axis -9.91835 -0.06569 -0.177794 xyz
    dof rx ry rz
  end
  begin
    id 15
    name LeftHand
    direction 0 0 0
    length 0
    axis 0 0 0 xyz
    dof rx ry rz
  end
  begin
    id 16
    name RightShoulderDummy
    direction -0.998891 -0.0402509 -0.0244414
    length 3.5433
    axis -0.001389 0.000121451 1.30017e-006 xyz
  end
  begin
    id 17
    name RightShoulder
    direction -0.99951 -0.000327807 0.0313133
    length 4.05031
    axis 0.215806 0.000203643 -0.0068026 xyz
    dof rx ry rz
  end
  begin
    id 18
    name RightArm
    direction -0.998573 -0.000999564 -0.053403
    length 10.3947
    axis -23.2009 -0.134239 -0.964101 xyz
    dof rx ry rz
  end
  begin
    id 19
    name RightForeArm
    direction -0.998898 0.00868028 0.0461306
    length 8.68355
    axis -9.92322 0.0658061 0.178868 xyz
    dof rx ry rz
  end
  begin
    id 20
    name RightHand
    direction 0 0 0
    length 0
    axis 0 0 0 xyz
    dof rx ry rz
  end
  begin
    id 21
    name LeftUpLegDummy
    direction 0.718183 -0.695806 0.00816078
    length 4.904
    axis 0 0 0 xyz
  end
  begin
    id 22
    name LeftUpLeg
    direction -6.81752e-006 -0.995793 0.0916337
    length 17.4976
    axis -3.48766 0.00143442 -0.000524262 xyz
    dof rx ry rz
  end
  begin
    id 23
    name LeftLeg
    direction -0.00601358 -0.995091 -0.0987824
    length 16.5821
    axis 3.68178 -0.00654042 -0.000285133 xyz
    dof rx ry rz
  end
  begin
    id 24
    name LeftFoot
    direction -0.00417578 -0.460984 0.887399
    length 3.77069
    axis 1.87233e-006 4.66016e-005 -8.6538e-006 xyz
    dof rx ry rz
  end
  begin
    id 25
    name LeftToes
    direction 0 0 0
    length 0
    axis 0 0 0 xyz
    dof rx ry rz
  end
:hierarchy
  begin
    root RightUpLegDummy SpineDummy LeftUpLegDummy
    RightUpLegDummy RightUpLeg
    RightUpLeg RightLeg
    RightLeg RightFoot
    RightFoot RightToes
    SpineDummy Spine
    Spine Spine1
    Spine1 HEadDummy LeftShoulder1Dummy RightShoulderDummy
    HEadDummy HEad
    LeftShoulder1Dummy LeftShoulder1
    LeftShoulder1 LeftArm
    LeftArm LeftForeArm
    LeftForeArm LeftHand
    RightShoulderDummy RightShoulder
    RightShoulder RightArm
    RightArm RightForeArm
    RightForeArm RightHand
    LeftUpLegDummy LeftUpLeg
    LeftUpLeg LeftLeg
    LeftLeg LeftFoot
    LeftFoot LeftToes
  end

:SAMPLES-PER-SECOND 30
:FULLY-SPECIFIED
:DEGREES
63
root  37.0739 36.4595 0.212678 -117.594 -81.1804 111.964
RightUpLeg  4.91107 -4.72877 -22.2646
RightLeg  65.3644 -2.29184 -6.17337
RightFoot  2.91185 -0.93228 7.56574
RightToes  0.000481921 0.542163 -0.142578
Spine  11.9064 2.86376 1.09062
Spine1  3.44273 5.88639 -12.3626
HEad  -27.8821 5.70475 -17.7702
LeftShoulder1  6.05106 -10.1195 -38.2257
LeftArm  -15.3399 26.8094 -16.752
LeftForeArm  7.66919 -11.4294 -3.07244
LeftHand  -0.25398 0.0180481 5.50724
RightShoulder  4.45211 7.70273 33.7818
RightArm  -4.2364 -4.35457 37.8772
RightForeArm  -2.83599 63.6429 24.7099
RightHand  -2.71693 8.1176 -23.4
LeftUpLeg  -22.7045 5.28161 -12.7203
LeftLeg  42.2461 4.0474 4.33045
LeftFoot  -13.6183 0.196949 5.70415
LeftToes  1.06245e-005 4.65868e-005 -8.65515e-006
64
root  35.715 37.0275 0.296292 -108.835 -82.4708 102.92
RightUpLeg  -1.70426 -5.4845 -20.2054
RightLeg  72.9043 -2.12304 -8.73799
RightFoot  0.912123 -0.749813 7.04927
RightToes  0.000481921 0.542163 -0.142578
Spine  11.6599 1.8821 -0.324742
Spine1  3.2409 4.28655 -9.99652
HEad  -28.8717 6.84013 -14.2175
LeftShoulder1  7.31917 -11.679 -41.8262
LeftArm  -17.9561 19.6985 -22.3325
LeftForeArm  8.46097 -11.7146 -3.14147
LeftHand  -0.25398 0.0180481 5.50724
RightShoulder  4.5314 7.72444 34.4008
RightArm  -0.973967 -6.67997 42.0926
RightForeArm  -17.5901 43.8741 11.619
RightHand  -3.52407 10.9688 -25.1056
LeftUpLeg  -18.2373 4.21146 -12.1263
LeftLeg  39.2399 4.0833 3.94585
LeftFoot  -14.4128 0.245245 5.92765
LeftToes  1.06245e-005 4.65868e-005 -8.65515e-006
65
root  34.4052 38.0106 0.35517 -100.359 -84.7265 94.6142
RightUpLeg  -8.08267 -6.73972 -16.1903
RightLeg  74.8704 -2.17152 -10.3072
RightFoot  -0.822897 -0.650345 6.98658
RightToes  0.000481921 0.542163 -0.142578
Spine  11.1628 0.951208 -0.289513
Spine1  2.80878 2.73045 -7.23025
HEad  -28.7788 7.91861 -11.903
LeftShoulder1  8.56492 -12.9975 -45.2509
LeftArm  -18.0635 12.0665 -27.2299
LeftForeArm  10.6584 -12.9299 -3.64991
LeftHand  -0.25398 0.0180481 5.50724
RightShoulder  4.82644 8.11996 35.546
RightArm  -2.48062 -8.86491 43.292
RightForeArm  -20.6087 21.9199 6.51515
RightHand  -3.36454 10.6249 -24.4502
LeftUpLeg  -12.6869 3.31958 -9.98211
LeftLeg  32.7758 3.9448 3.10812
LeftFoot  -13.2656 0.185408 6.34789
LeftToes  1.06245e-005 4.65868e-005 -8.65515e-006
66
root  33.1089 39.1506 0.398411 -73.2891 -87.3339 68.2293
RightUpLeg  -13.8247 -7.70014 -10.8416
RightLeg  71.9558 -2.54885 -9.73178
RightFoot  -1.83611 -0.561094 6.59528
RightToes  0.000481921 0.542163 -0.142578
Spine  10.2479 0.174639 0.610366
Spine1  2.4935 1.28073 -4.19568
HEad  -27.1197 8.64902 -10.9001
LeftShoulder1  9.32566 -13.7692 -47.1255
LeftArm  -14.1621 4.41008 -32.4696
LeftForeArm  14.0642 -15.4176 -4.37809
LeftHand  -0.25398 0.0180481 5.50724
RightShoulder  5.15158 8.73321 36.1202
RightArm  -16.0892 -13.5233 41.408
RightForeArm  -7.71519 5.47557 6.48528
RightHand  -2.89385 9.22206 -23.1523
LeftUpLeg  -6.90936 2.7415 -6.73545
LeftLeg  24.1876 2.42042 1.57745
LeftFoot  -10.6394 0.0336954 5.73239
LeftToes  1.06245e-005 4.65868e-005 -8.65515e-006
67
root  31.8015 40.1446 0.416162 -5.07304 -87.8084 1.38322
RightUpLeg  -18.8641 -9.10496 -6.01707
RightLeg  66.0306 -3.41988 -9.0103
RightFoot  -3.04229 -0.551486 7.32971
RightToes  0.000481921 0.542163 -0.142578
Spine  9.09698 -0.616923 0.59696
Spine1  1.58916 -0.439233 -0.324684
HEad  -24.169 9.50036 -9.91798
LeftShoulder1  9.47192 -14.0307 -47.1427
LeftArm  -6.07301 -2.87545 -38.0894
LeftForeArm  17.2894 -19.1135 -4.41563
LeftHand  -0.25398 0.0180481 5.50724
RightShoulder  5.19818 9.12479 35.1987
RightArm  -20.5811 -21.9616 39.184
RightForeArm  -9.25612 1.78617 3.99109
RightHand  -3.26164 9.60284 -25.2497
LeftUpLeg  -2.34865 2.76336 -3.40763
LeftLeg  16.2497 0.510402 0.312666
LeftFoot  -8.36924 -0.0283424 3.02214
LeftToes  1.06245e-005 4.65868e-005 -8.65515e-006
68
root  30.5296 40.7801 0.404319 19.8316 -84.8802 -22.0216
RightUpLeg  -23.1246 -11.8637 -2.68393
RightLeg  58.8621 -4.97129 -9.26875
RightFoot  -4.4079 -0.542106 8.41568
RightToes  0.000481921 0.542163 -0.142578
Spine  8.81034 -1.65801 -0.947129
Spine1  -0.376571 -2.48427 4.26394
HEad  -22.1667 10.6498 -7.13949
LeftShoulder1  9.15842 -13.9574 -45.7328
LeftArm  2.24761 -9.92088 -43.5685
LeftForeArm  21.6033 -24.0077 -4.01359
LeftHand  -0.25398 0.0180481 5.50724
RightShoulder  4.84958 9.00639 32.8153
RightArm  -22.4045 -32.6552 37.1876
RightForeArm  -19.8647 6.42989 4.44233
RightHand  -3.86443 10.5605 -28.0717
LeftUpLeg  0.609716 3.09835 -0.604938
LeftLeg  11.1168 1.71857 -0.305292
LeftFoot  -8.20317 0.0632673 -0.718086
LeftToes  1.06245e-005 4.65868e-005 -8.65515e-006
69
root  29.3525 40.9402 0.393957 18.3087 -81.7025 -19.8803
RightUpLeg  -26.1637 -15.3749 -0.428196
RightLeg  51.305 -6.28431 -8.74467
RightFoot  -4.98728 -0.490746 8.21927
RightToes  0.000481921 0.542163 -0.142578
Spine  10.1253 -2.84384 -2.57698
Spine1  -2.48107 -4.38413 8.05562
HEad  -22.5397 11.5879 -2.57028
LeftShoulder1  8.55945 -13.8159 -42.9661
LeftArm  6.12454 -17.4693 -48.9321
LeftForeArm  29.1909 -29.5259 -4.79926
LeftHand  -0.25398 0.0180481 5.50724
RightShoulder  4.24681 8.51603 29.3502
RightArm  -21.7033 -42.8298 35.356
RightForeArm  -29.3507 13.2538 5.74369
RightHand  -3.59982 10.0749 -26.9035
LeftUpLeg  2.89598 4.2398 1.52893
LeftLeg  8.92727 5.32008 -0.425505
LeftFoot  -9.73943 0.0946859 -2.39198
LeftToes  1.06245e-005 4.65868e-005 -8.65515e-006
70
root  28.2379 40.6213 0.399301 15.5182 -79.0382 -17.7741
RightUpLeg  -27.6278 -18.1805 0.783873
RightLeg  43.7275 -5.81427 -6.25699
RightFoot  -4.53681 -0.501499 7.89457
RightToes  0.000481921 0.542163 -0.142578
Spine  12.445 -3.67621 -3.78178
Spine1  -3.40779 -5.74027 10.2395
HEad  -22.5983 11.1942 0.428209
LeftShoulder1  7.77156 -13.6725 -39.0411
LeftArm  8.91406 -26.7172 -54.7981
LeftForeArm  34.4529 -33.8618 -5.54066
LeftHand  -0.25398 0.0180481 5.50724
RightShoulder  3.58155 7.92896 25.2145
RightArm  -17.9931 -50.8836 32.9845
RightForeArm  -31.42 17.928 6.17105
RightHand  -2.43124 7.55417 -21.891
LeftUpLeg  5.23672 5.39653 3.01314
LeftLeg  9.23139 7.75057 -0.306399
LeftFoot  -12.0261 0.0732051 -0.852398
LeftToes  1.06245e-005 4.65868e-005 -8.65515e-006
71
root  27.058 39.9864 0.378679 9.55121 -77.5274 -13.2863
RightUpLeg  -27.8624 -19.6323 0.447848
RightLeg  36.7972 -3.9254 -3.40281
RightFoot  -3.91096 -0.580062 8.50715
RightToes  0.000481921 0.542163 -0.142578
Spine  14.8061 -3.72762 -6.00529
Spine1  -3.07806 -6.49912 11.9126
HEad  -22.6373 10.1068 2.37058
LeftShoulder1  7.03343 -13.2896 -35.8068
LeftArm  12.2919 -38.0916 -60.2492
LeftForeArm  35.6406 -34.9973 -5.76508
LeftHand  -0.25398 0.0180481 5.50724
RightShoulder  2.99761 7.16498 21.8145
RightArm  -11.9568 -55.8758 28.0304
RightForeArm  -27.5682 18.8825 6.20725
RightHand  -1.63295 5.77473 -17.3559
LeftUpLeg  7.75857 6.40254 3.72288
LeftLeg  11.5841 6.56428 -0.499291
LeftFoot  -15.4548 0.117621 0.807335
LeftToes  1.06245e-005 4.65868e-005 -8.65515e-006
72
root  25.6772 39.3568 0.300992 0.162384 -77.3475 -5.18224
RightUpLeg  -27.4479 -20.1693 -0.981871
RightLeg  30.4436 -2.48801 -1.79841
RightFoot  -3.8483 -0.630589 9.21371
RightToes  0.000481921 0.542163 -0.142578
Spine  16.3713 -3.10404 -9.74138
Spine1  -2.32513 -6.84233 13.7361
HEad  -23.0458 9.67332 4.48503
LeftShoulder1  6.81992 -12.7864 -35.7905
LeftArm  16.2867 -49.3754 -62.7765
LeftForeArm  34.0788 -33.9889 -5.59881
LeftHand  -0.25398 0.0180481 5.50724
RightShoulder  2.60686 6.04936 20.9769
RightArm  -6.39266 -56.5825 20.0554
RightForeArm  -23.4496 15.5252 6.34779
RightHand  -1.67641 6.11311 -17.1741
LeftUpLeg  10.8981 7.33992 3.67204
LeftLeg  13.5768 3.91057 -1.35356
LeftFoot  -19.2171 0.101108 -0.123121
LeftToes  1.06245e-005 4.65868e-005 -8.65515e-006
73
root  24.0522 38.8731 0.225453 -7.60062 -78.2005 2.27196
RightUpLeg  -26.9546 -20.4301 -1.51903
RightLeg  24.6284 -2.00261 -1.21658
RightFoot  -4.06589 -0.643483 9.65046
RightToes  0.000481921 0.542163 -0.142578
Spine  16.2226 -2.72074 -12.5608
Spine1  -1.74 -7.07717 14.9679
HEad  -22.6223 10.4332 6.89505
LeftShoulder1  7.21756 -12.6817 -38.4176
LeftArm  17.1183 -56.4967 -60.3721
LeftForeArm  32.4283 -34.146 -5.73191
LeftHand  -0.25398 0.0180481 5.50724
RightShoulder  2.40505 4.98581 22.0512
RightArm  -6.71168 -53.834 13.7106
RightForeArm  -23.2883 9.12491 5.80145
RightHand  -2.18694 7.39808 -20.0548
LeftUpLeg  14.0916 8.06184 3.57688
LeftLeg  14.2016 3.11207 -1.89682
LeftFoot  -21.8982 -0.0798239 -2.31857
LeftToes  1.06245e-005 4.65868e-005 -8.65515e-006
74
root  22.2311 38.4867 0.207738 -8.24582 -79.8471 3.60341
RightUpLeg  -26.7957 -20.2295 -0.0282428
RightLeg  20.8724 -1.79492 -0.96195
RightFoot  -3.50709 -0.666789 9.38131
RightToes  0.000481921 0.542163 -0.142578
Spine  14.2345 -3.16737 -12.4476
Spine1  -1.49578 -7.36 15.183
HEad  -19.8313 11.4589 8.86157
LeftShoulder1  7.59245 -12.8388 -40.2028
LeftArm  10.3138 -57.3629 -52.7784
LeftForeArm  32.0688 -37.2634 -6.57962
LeftHand  -0.25398 0.0180481 5.50724
RightShoulder  2.2808 4.52397 22.135
RightArm  -11.6803 -51.2459 12.7761
RightForeArm  -31.3787 4.96698 3.80491
RightHand  -2.89382 8.93953 -23.5457
LeftUpLeg  16.608 8.44412 4.07215
LeftLeg  14.2176 4.4412 -1.33881
LeftFoot  -23.2164 -0.247543 -3.72605
LeftToes  1.06245e-005 4.65868e-005 -8.65515e-006
75
root  20.331 38.15 0.189261 -0.743011 -81.6406 -3.02827
RightUpLeg  -27.0621 -18.6173 2.44346
RightLeg  21.3218 -2.08492 -1.11339
RightFoot  -1.89936 -0.560107 6.713
RightToes  0.000481921 0.542163 -0.142578
Spine  11.8086 -3.77437 -10.3518
Spine1  -1.3921 -7.62958 15.6594
HEad  -15.7678 11.7574 9.87277
LeftShoulder1  7.47375 -12.7994 -39.6119
LeftArm  1.89662 -52.9585 -46.8609
LeftForeArm  32.9246 -42.0862 -7.93521
LeftHand  -0.25398 0.0180481 5.50724
RightShoulder  2.17695 4.66479 20.2717
RightArm  -18.7918 -51.1289 15.9664
RightForeArm  -43.7451 7.03258 2.86814
RightHand  -3.58858 10.5283 -26.2045
LeftUpLeg  18.4581 9.07953 5.52573
LeftLeg  15.1063 4.94661 0.00905801
LeftFoot  -23.9209 -0.53493 -6.11452
LeftToes  1.06245e-005 4.65868e-005 -8.65515e-006
76
root  18.4349 37.8121 0.0566007 9.83267 -82.6575 -13.5648
RightUpLeg  -27.48 -15.9589 4.39166
RightLeg  26.3777 -3.23171 -1.98605
RightFoot  -1.02645 -0.118915 1.14964
RightToes  0.000481921 0.542163 -0.142578
Spine  10.6847 -3.91813 -8.704
Spine1  -1.02564 -7.89024 17.3745
HEad  -13.3655 11.5066 10.4975
LeftShoulder1  7.18732 -12.5903 -38.4905
LeftArm  -3.34038 -47.1315 -44.4142
LeftForeArm  35.2029 -46.5304 -9.2884
LeftHand  -0.25398 0.0180481 5.50724
RightShoulder  2.17406 4.97344 19.1765
RightArm  -23.1864 -51.6291 19.474
RightForeArm  -51.205 12.8714 3.86421
RightHand  -3.77242 11.2627 -26.2956
LeftUpLeg  19.5986 9.51586 7.60286
LeftLeg  18.933 3.93891 1.6076
LeftFoot  -23.6822 -1.07226 -11.3159
LeftToes  1.06245e-005 4.65868e-005 -8.65515e-006
77
root  16.5631 37.3881 -0.191774 18.9639 -82.6773 -23.5554
RightUpLeg  -27.7103 -14.2806 5.98202
RightLeg  33.8614 -4.54831 -3.53883
RightFoot  -3.06418 0.306064 -4.64181
RightToes  0.000481921 0.542163 -0.142578
Spine  11.029 -3.98622 -7.84322
Spine1  -0.399043 -8.27119 19.3686
HEad  -13.3134 11.4108 11.6505
LeftShoulder1  7.32406 -12.6237 -39.2025
LeftArm  -6.21484 -41.5215 -41.3942
LeftForeArm  38.6648 -50.1547 -10.4726
LeftHand  -0.25398 0.0180481 5.50724
RightShoulder  2.33333 4.99543 21.1292
RightArm  -24.4164 -49.4487 20.6378
RightForeArm  -48.3879 17.2091 5.27902
RightHand  -3.43797 10.9825 -24.481
LeftUpLeg  18.5398 7.20948 9.1766
LeftLeg  28.0256 5.31286 3.48564
LeftFoot  -20.4089 -1.10224 -15.344
LeftToes  1.06245e-005 4.65868e-005 -8.65515e-006
